# xmcd
# 
# Track frame offsets:
#     150
#     16337
#     27587
#     48940
#     67051
#     142551
#     164100
#     181207
#     212282
#     229753
# 
# Disc length: 3579
# 
# Revision: 3
# Processed by: cddbd v1.5.2PL0 Copyright (c) Steve Scherf et al.
# Submitted via: fre:ac v1.0.31
# 
DISCID=810df90a
DTITLE=Eric Clapton - Martin Scoreses Presents The Blues Eric Clapton
DYEAR=2003
DGENRE=Blues
TTITLE0=John Mayall's Bluesbreakers - All Your Love
TTITLE1=John Mayall's Bluesbreakers - Steppin' Out
TTITLE2=Cream - Rollin' and Tumblin'
TTITLE3=Cream - I'm So Glad
TTITLE4=Cream - Spoonful (live)
TTITLE5=Blind Faith - Sleeping In The Ground
TTITLE6=Howlin' Wolf - Rockin' Daddy
TTITLE7=Derek and the Dominos - Have You Ever Loved A Woman
TTITLE8=Eric Clapton and Duane Allman - Mean Old World
TTITLE9=Derek and the Dominos - Crossroads (live)
EXTD=
EXTT0=
EXTT1=
EXTT2=
EXTT3=
EXTT4=
EXTT5=
EXTT6=
EXTT7=
EXTT8=
EXTT9=
PLAYORDER=
